<svg xmlns="http://www.w3.org/2000/svg" xmlns:xlink="http://www.w3.org/1999/xlink" width="504pt" height="96pt" viewBox="0.00 0.00 504.00 95.95">
<g id="graph0" class="graph" transform="scale(0.179104 0.179104) rotate(0) translate(4 531.74)">
<title>HydroBrain</title>
<polygon fill="white" stroke="none" points="-4,4 -4,-531.74 2810,-531.74 2810,4 -4,4"/>
<g id="clust1" class="cluster">
<title>cluster_title</title>
<path fill="white" stroke="#047857" d="M20,-385.94C20,-385.94 248,-385.94 248,-385.94 254,-385.94 260,-391.94 260,-397.94 260,-397.94 260,-507.74 260,-507.74 260,-513.74 254,-519.74 248,-519.74 248,-519.74 20,-519.74 20,-519.74 14,-519.74 8,-513.74 8,-507.74 8,-507.74 8,-397.94 8,-397.94 8,-391.94 14,-385.94 20,-385.94"/>
<text text-anchor="middle" x="134" y="-503.14" font-family="Arial" font-size="14.00">HydroBrain Smart Hydroponic System</text>
</g>
<g id="clust2" class="cluster">
<title>cluster_physical</title>
<path fill="#f0fff4" stroke="#047857" d="M559,-90.74C559,-90.74 977,-90.74 977,-90.74 983,-90.74 989,-96.74 989,-102.74 989,-102.74 989,-329.74 989,-329.74 989,-335.74 983,-341.74 977,-341.74 977,-341.74 559,-341.74 559,-341.74 553,-341.74 547,-335.74 547,-329.74 547,-329.74 547,-102.74 547,-102.74 547,-96.74 553,-90.74 559,-90.74"/>
<text text-anchor="middle" x="768" y="-325.14" font-family="Arial" font-size="14.00">Physical Components</text>
</g>
<g id="clust3" class="cluster">
<title>cluster_control</title>
<path fill="#f0fff4" stroke="#047857" d="M1009,-8C1009,-8 1646,-8 1646,-8 1652,-8 1658,-14 1658,-20 1658,-20 1658,-329.74 1658,-329.74 1658,-335.74 1652,-341.74 1646,-341.74 1646,-341.74 1009,-341.74 1009,-341.74 1003,-341.74 997,-335.74 997,-329.74 997,-329.74 997,-20 997,-20 997,-14 1003,-8 1009,-8"/>
<text text-anchor="middle" x="1327.5" y="-325.14" font-family="Arial" font-size="14.00">Electronic Control System</text>
</g>
<g id="clust4" class="cluster">
<title>cluster_sustainability</title>
<path fill="#f0fff4" stroke="#047857" d="M1678,-168.54C1678,-168.54 2114,-168.54 2114,-168.54 2120,-168.54 2126,-174.54 2126,-180.54 2126,-180.54 2126,-335.74 2126,-335.74 2126,-341.74 2120,-347.74 2114,-347.74 2114,-347.74 1678,-347.74 1678,-347.74 1672,-347.74 1666,-341.74 1666,-335.74 1666,-335.74 1666,-180.54 1666,-180.54 1666,-174.54 1672,-168.54 1678,-168.54"/>
<text text-anchor="middle" x="1896" y="-331.14" font-family="Arial" font-size="14.00">Sustainability Features</text>
</g>
<g id="clust5" class="cluster">
<title>cluster_interface</title>
<path fill="#f0fff4" stroke="#047857" d="M2146,-90.74C2146,-90.74 2504,-90.74 2504,-90.74 2510,-90.74 2516,-96.74 2516,-102.74 2516,-102.74 2516,-329.74 2516,-329.74 2516,-335.74 2510,-341.74 2504,-341.74 2504,-341.74 2146,-341.74 2146,-341.74 2140,-341.74 2134,-335.74 2134,-329.74 2134,-329.74 2134,-102.74 2134,-102.74 2134,-96.74 2140,-90.74 2146,-90.74"/>
<text text-anchor="middle" x="2325" y="-325.14" font-family="Arial" font-size="14.00">User Control Interfaces</text>
</g>
<g id="clust6" class="cluster">
<title>cluster_applications</title>
<path fill="#f0fff4" stroke="#047857" d="M280,-287.74C280,-287.74 527,-287.74 527,-287.74 533,-287.74 539,-293.74 539,-299.74 539,-299.74 539,-476.93 539,-476.93 539,-482.93 533,-488.93 527,-488.93 527,-488.93 280,-488.93 280,-488.93 274,-488.93 268,-482.93 268,-476.93 268,-476.93 268,-299.74 268,-299.74 268,-293.74 274,-287.74 280,-287.74"/>
<text text-anchor="middle" x="403.5" y="-472.33" font-family="Arial" font-size="14.00">Applications</text>
</g>
<g id="clust7" class="cluster">
<title>cluster_legend</title>
<path fill="white" stroke="#047857" d="M2536,-162.54C2536,-162.54 2786,-162.54 2786,-162.54 2792,-162.54 2798,-168.54 2798,-174.54 2798,-174.54 2798,-465.44 2798,-465.44 2798,-471.44 2792,-477.44 2786,-477.44 2786,-477.44 2536,-477.44 2536,-477.44 2530,-477.44 2524,-471.44 2524,-465.44 2524,-465.44 2524,-174.54 2524,-174.54 2524,-168.54 2530,-162.54 2536,-162.54"/>
<text text-anchor="middle" x="2661" y="-462.64" font-family="Arial" font-size="12.00" fill="#047857">DIAGRAM LEGEND</text>
</g>
<!-- description -->
<g id="node1" class="node">
<title>description</title>
<polygon fill="#e6fffa" stroke="#047857" points="226.81,-486.94 35.19,-486.94 35.19,-393.94 232.81,-393.94 232.81,-480.94 226.81,-486.94"/>
<polyline fill="none" stroke="#047857" points="226.81,-486.94 226.81,-480.94"/>
<polyline fill="none" stroke="#047857" points="232.81,-480.94 226.81,-480.94"/>
<text text-anchor="middle" x="134" y="-476.14" font-family="Arial" font-size="8.00" fill="#000000">HydroBrain is a smart hydroponic farming system</text>
<text text-anchor="middle" x="134" y="-466.54" font-family="Arial" font-size="8.00" fill="#000000">that uses IoT technology to grow plants without soil.</text>
<text text-anchor="middle" x="134" y="-456.94" font-family="Arial" font-size="8.00" fill="#000000">It efficiently recycles water and nutrients, reducing</text>
<text text-anchor="middle" x="134" y="-447.34" font-family="Arial" font-size="8.00" fill="#000000">water usage compared to traditional farming.</text>
<text text-anchor="middle" x="134" y="-428.74" font-family="Arial" font-size="8.00" fill="#000000">• Five-tier vertical system (15 plant capacity)</text>
<text text-anchor="middle" x="134" y="-419.14" font-family="Arial" font-size="8.00" fill="#000000">• For homes, restaurants, and urban farms</text>
<text text-anchor="middle" x="134" y="-409.54" font-family="Arial" font-size="8.00" fill="#000000">• Remote monitoring and control</text>
<text text-anchor="middle" x="134" y="-399.94" font-family="Arial" font-size="8.00" fill="#000000">• Supports Saudi Vision 2030 sustainability goals</text>
</g>
<!-- System -->
<g id="node2" class="node">
<title>System</title>
<path fill="#0e9f6e" stroke="#047857" d="M529.95,-438.41C529.95,-438.41 529.95,-442.46 529.95,-442.46 529.95,-444.49 527.96,-446.9 525.96,-447.28 525.96,-447.28 488.86,-454.37 488.86,-454.37 486.87,-454.75 482.84,-455.13 480.82,-455.13 480.82,-455.13 425.18,-455.13 425.18,-455.13 423.16,-455.13 419.13,-454.75 417.14,-454.37 417.14,-454.37 380.04,-447.28 380.04,-447.28 378.04,-446.9 376.05,-444.49 376.05,-442.46 376.05,-442.46 376.05,-438.41 376.05,-438.41 376.05,-436.38 378.04,-433.97 380.04,-433.59 380.04,-433.59 417.14,-426.5 417.14,-426.5 419.13,-426.12 423.16,-425.74 425.18,-425.74 425.18,-425.74 480.82,-425.74 480.82,-425.74 482.84,-425.74 486.87,-426.12 488.86,-426.5 488.86,-426.5 525.96,-433.59 525.96,-433.59 527.96,-433.97 529.95,-436.38 529.95,-438.41"/>
<path fill="none" stroke="#047857" d="M533.95,-437.3C533.95,-437.3 533.95,-443.57 533.95,-443.57 533.95,-446.7 530.87,-450.42 527.8,-451.01 527.8,-451.01 491.4,-457.96 491.4,-457.96 488.33,-458.54 482.12,-459.13 478.99,-459.13 478.99,-459.13 427.01,-459.13 427.01,-459.13 423.88,-459.13 417.67,-458.54 414.6,-457.96 414.6,-457.96 378.2,-451.01 378.2,-451.01 375.13,-450.42 372.05,-446.7 372.05,-443.57 372.05,-443.57 372.05,-437.3 372.05,-437.3 372.05,-434.17 375.13,-430.45 378.2,-429.87 378.2,-429.87 414.6,-422.92 414.6,-422.92 417.67,-422.33 423.88,-421.74 427.01,-421.74 427.01,-421.74 478.99,-421.74 478.99,-421.74 482.12,-421.74 488.33,-422.33 491.4,-422.92 491.4,-422.92 527.8,-429.87 527.8,-429.87 530.87,-430.45 533.95,-434.17 533.95,-437.3"/>
<text text-anchor="middle" x="453" y="-437.44" font-family="Arial" font-size="10.00" fill="white">HydroBrain System</text>
</g>
<!-- PhysicalStructure -->
<g id="node3" class="node">
<title>PhysicalStructure</title>
<path fill="#03a66a" stroke="#047857" d="M761.09,-311.94C761.09,-311.94 678.91,-311.94 678.91,-311.94 675.71,-311.94 672.51,-308.74 672.51,-305.54 672.51,-305.54 672.51,-299.14 672.51,-299.14 672.51,-295.94 675.71,-292.74 678.91,-292.74 678.91,-292.74 761.09,-292.74 761.09,-292.74 764.29,-292.74 767.49,-295.94 767.49,-299.14 767.49,-299.14 767.49,-305.54 767.49,-305.54 767.49,-308.74 764.29,-311.94 761.09,-311.94"/>
<text text-anchor="middle" x="720" y="-299.34" font-family="Arial" font-size="10.00" fill="white">Physical Structure</text>
</g>
<!-- System&#45;&gt;PhysicalStructure -->
<g id="edge1" class="edge">
<title>System-&gt;PhysicalStructure</title>
<path fill="none" stroke="#047857" stroke-width="0.8" d="M487.63,-421.78C542.28,-393.93 647.2,-340.44 695.08,-316.04"/>
<polygon fill="#047857" stroke="#047857" stroke-width="0.8" points="696.06,-318.29 701.18,-312.93 693.83,-313.92 696.06,-318.29"/>
</g>
<!-- ControlSystem -->
<g id="node4" class="node">
<title>ControlSystem</title>
<path fill="#03a66a" stroke="#047857" d="M1317.98,-311.94C1317.98,-311.94 1248.02,-311.94 1248.02,-311.94 1244.82,-311.94 1241.62,-308.74 1241.62,-305.54 1241.62,-305.54 1241.62,-299.14 1241.62,-299.14 1241.62,-295.94 1244.82,-292.74 1248.02,-292.74 1248.02,-292.74 1317.98,-292.74 1317.98,-292.74 1321.18,-292.74 1324.38,-295.94 1324.38,-299.14 1324.38,-299.14 1324.38,-305.54 1324.38,-305.54 1324.38,-308.74 1321.18,-311.94 1317.98,-311.94"/>
<text text-anchor="middle" x="1283" y="-299.34" font-family="Arial" font-size="10.00" fill="white">Control System</text>
</g>
<!-- System&#45;&gt;ControlSystem -->
<g id="edge2" class="edge">
<title>System-&gt;ControlSystem</title>
<path fill="none" stroke="#047857" stroke-width="0.8" d="M521.58,-428.32C624.6,-411.61 825.41,-378.98 996,-350.94 1079.3,-337.24 1176.16,-321.14 1233.38,-311.61"/>
<polygon fill="#047857" stroke="#047857" stroke-width="0.8" points="1233.48,-314.07 1239.99,-310.51 1232.68,-309.24 1233.48,-314.07"/>
</g>
<!-- SustainabilityFeatures -->
<g id="node5" class="node">
<title>SustainabilityFeatures</title>
<path fill="#03a66a" stroke="#047857" d="M1858.26,-317.94C1858.26,-317.94 1805.74,-317.94 1805.74,-317.94 1800.54,-317.94 1795.34,-312.74 1795.34,-307.54 1795.34,-307.54 1795.34,-297.14 1795.34,-297.14 1795.34,-291.94 1800.54,-286.74 1805.74,-286.74 1805.74,-286.74 1858.26,-286.74 1858.26,-286.74 1863.46,-286.74 1868.66,-291.94 1868.66,-297.14 1868.66,-297.14 1868.66,-307.54 1868.66,-307.54 1868.66,-312.74 1863.46,-317.94 1858.26,-317.94"/>
<text text-anchor="middle" x="1832" y="-305.34" font-family="Arial" font-size="10.00" fill="white">Sustainability</text>
<text text-anchor="middle" x="1832" y="-293.34" font-family="Arial" font-size="10.00" fill="white">Features</text>
</g>
<!-- System&#45;&gt;SustainabilityFeatures -->
<g id="edge3" class="edge">
<title>System-&gt;SustainabilityFeatures</title>
<path fill="none" stroke="#047857" stroke-width="0.8" d="M534.19,-439.22C730.18,-437.46 1244.06,-425.48 1665,-350.94 1707.19,-343.46 1754,-329.62 1787.3,-318.78"/>
<polygon fill="#047857" stroke="#047857" stroke-width="0.8" points="1788,-321.13 1793.89,-316.61 1786.47,-316.47 1788,-321.13"/>
</g>
<!-- UserInterface -->
<g id="node6" class="node">
<title>UserInterface</title>
<path fill="#03a66a" stroke="#047857" d="M2309.2,-311.94C2309.2,-311.94 2244.8,-311.94 2244.8,-311.94 2241.6,-311.94 2238.4,-308.74 2238.4,-305.54 2238.4,-305.54 2238.4,-299.14 2238.4,-299.14 2238.4,-295.94 2241.6,-292.74 2244.8,-292.74 2244.8,-292.74 2309.2,-292.74 2309.2,-292.74 2312.4,-292.74 2315.6,-295.94 2315.6,-299.14 2315.6,-299.14 2315.6,-305.54 2315.6,-305.54 2315.6,-308.74 2312.4,-311.94 2309.2,-311.94"/>
<text text-anchor="middle" x="2277" y="-299.34" font-family="Arial" font-size="10.00" fill="white">User Interface</text>
</g>
<!-- System&#45;&gt;UserInterface -->
<g id="edge4" class="edge">
<title>System-&gt;UserInterface</title>
<path fill="none" stroke="#047857" stroke-width="0.8" d="M534.38,-438.02C826.43,-432.48 1820.85,-409.65 2133,-350.94 2174.16,-343.19 2219.76,-326.7 2248.39,-315.31"/>
<polygon fill="#047857" stroke="#047857" stroke-width="0.8" points="2249.3,-317.59 2254.88,-312.7 2247.47,-313.04 2249.3,-317.59"/>
</g>
<!-- HomeUse -->
<g id="node40" class="node">
<title>HomeUse</title>
<path fill="#f5f5f5" stroke="#047857" d="M328.42,-311.94C328.42,-311.94 279.58,-311.94 279.58,-311.94 276.38,-311.94 273.18,-308.74 273.18,-305.54 273.18,-305.54 273.18,-299.14 273.18,-299.14 273.18,-295.94 276.38,-292.74 279.58,-292.74 279.58,-292.74 328.42,-292.74 328.42,-292.74 331.62,-292.74 334.82,-295.94 334.82,-299.14 334.82,-299.14 334.82,-305.54 334.82,-305.54 334.82,-308.74 331.62,-311.94 328.42,-311.94"/>
<text text-anchor="middle" x="304" y="-299.34" font-family="Arial" font-size="10.00" fill="#000000">Home Use</text>
</g>
<!-- System&#45;&gt;HomeUse -->
<g id="edge38" class="edge">
<title>System-&gt;HomeUse</title>
<path fill="none" stroke="#047857" stroke-width="0.8" stroke-dasharray="5,2" d="M430.48,-421.46C409,-404.04 376,-376.56 349,-350.94 337.9,-340.4 326.04,-327.8 317.28,-318.2"/>
<polygon fill="#047857" stroke="#047857" stroke-width="0.8" points="319.34,-316.83 312.83,-313.28 315.71,-320.12 319.34,-316.83"/>
</g>
<!-- Restaurants -->
<g id="node41" class="node">
<title>Restaurants</title>
<path fill="#f5f5f5" stroke="#047857" d="M425.76,-311.94C425.76,-311.94 370.24,-311.94 370.24,-311.94 367.04,-311.94 363.84,-308.74 363.84,-305.54 363.84,-305.54 363.84,-299.14 363.84,-299.14 363.84,-295.94 367.04,-292.74 370.24,-292.74 370.24,-292.74 425.76,-292.74 425.76,-292.74 428.96,-292.74 432.16,-295.94 432.16,-299.14 432.16,-299.14 432.16,-305.54 432.16,-305.54 432.16,-308.74 428.96,-311.94 425.76,-311.94"/>
<text text-anchor="middle" x="398" y="-299.34" font-family="Arial" font-size="10.00" fill="#000000">Restaurants</text>
</g>
<!-- System&#45;&gt;Restaurants -->
<g id="edge39" class="edge">
<title>System-&gt;Restaurants</title>
<path fill="none" stroke="#047857" stroke-width="0.8" stroke-dasharray="5,2" d="M445.7,-421.36C434.94,-394.74 414.99,-345.38 404.63,-319.74"/>
<polygon fill="#047857" stroke="#047857" stroke-width="0.8" points="406.98,-319.01 402.08,-313.44 402.43,-320.85 406.98,-319.01"/>
</g>
<!-- UrbanFarms -->
<g id="node42" class="node">
<title>UrbanFarms</title>
<path fill="#f5f5f5" stroke="#047857" d="M527.97,-311.94C527.97,-311.94 468.03,-311.94 468.03,-311.94 464.83,-311.94 461.63,-308.74 461.63,-305.54 461.63,-305.54 461.63,-299.14 461.63,-299.14 461.63,-295.94 464.83,-292.74 468.03,-292.74 468.03,-292.74 527.97,-292.74 527.97,-292.74 531.17,-292.74 534.37,-295.94 534.37,-299.14 534.37,-299.14 534.37,-305.54 534.37,-305.54 534.37,-308.74 531.17,-311.94 527.97,-311.94"/>
<text text-anchor="middle" x="498" y="-299.34" font-family="Arial" font-size="10.00" fill="#000000">Urban Farms</text>
</g>
<!-- System&#45;&gt;UrbanFarms -->
<g id="edge40" class="edge">
<title>System-&gt;UrbanFarms</title>
<path fill="none" stroke="#047857" stroke-width="0.8" stroke-dasharray="5,2" d="M458.98,-421.36C467.74,-394.86 483.96,-345.81 492.46,-320.08"/>
<polygon fill="#047857" stroke="#047857" stroke-width="0.8" points="494.78,-320.88 494.65,-313.46 490.13,-319.34 494.78,-320.88"/>
</g>
<!-- GrowingLevels -->
<g id="node7" class="node">
<title>GrowingLevels</title>
<path fill="#f5f5f5" stroke="#047857" d="M636.09,-204.74C636.09,-204.74 561.91,-204.74 561.91,-204.74 556.71,-204.74 551.51,-199.54 551.51,-194.34 551.51,-194.34 551.51,-183.94 551.51,-183.94 551.51,-178.74 556.71,-173.54 561.91,-173.54 561.91,-173.54 636.09,-173.54 636.09,-173.54 641.29,-173.54 646.49,-178.74 646.49,-183.94 646.49,-183.94 646.49,-194.34 646.49,-194.34 646.49,-199.54 641.29,-204.74 636.09,-204.74"/>
<text text-anchor="middle" x="599" y="-192.14" font-family="Arial" font-size="10.00" fill="#000000">5-Tier</text>
<text text-anchor="middle" x="599" y="-180.14" font-family="Arial" font-size="10.00" fill="#000000">Growing Structure</text>
</g>
<!-- PhysicalStructure&#45;&gt;GrowingLevels -->
<g id="edge5" class="edge">
<title>PhysicalStructure-&gt;GrowingLevels</title>
<path fill="none" stroke="#047857" stroke-width="0.8" d="M710.1,-292.24C690.76,-274.47 647.57,-234.77 621.1,-210.45"/>
<polygon fill="#047857" stroke="#047857" stroke-width="0.8" points="622.78,-208.66 615.97,-205.73 619.47,-212.27 622.78,-208.66"/>
</g>
<!-- WaterReservoir -->
<g id="node8" class="node">
<title>WaterReservoir</title>
<path fill="#f5f5f5" stroke="#047857" d="M753.76,-204.74C753.76,-204.74 686.24,-204.74 686.24,-204.74 681.04,-204.74 675.84,-199.54 675.84,-194.34 675.84,-194.34 675.84,-183.94 675.84,-183.94 675.84,-178.74 681.04,-173.54 686.24,-173.54 686.24,-173.54 753.76,-173.54 753.76,-173.54 758.96,-173.54 764.16,-178.74 764.16,-183.94 764.16,-183.94 764.16,-194.34 764.16,-194.34 764.16,-199.54 758.96,-204.74 753.76,-204.74"/>
<text text-anchor="middle" x="720" y="-192.14" font-family="Arial" font-size="10.00" fill="#000000">Water &amp; Nutrient</text>
<text text-anchor="middle" x="720" y="-180.14" font-family="Arial" font-size="10.00" fill="#000000">Reservoir</text>
</g>
<!-- PhysicalStructure&#45;&gt;WaterReservoir -->
<g id="edge6" class="edge">
<title>PhysicalStructure-&gt;WaterReservoir</title>
<path fill="none" stroke="#047857" stroke-width="0.8" d="M720,-292.24C720,-275.07 720,-237.43 720,-212.96"/>
<polygon fill="#047857" stroke="#047857" stroke-width="0.8" points="722.45,-213.12 720,-206.12 717.55,-213.12 722.45,-213.12"/>
</g>
<!-- LightSystem -->
<g id="node9" class="node">
<title>LightSystem</title>
<path fill="#f5f5f5" stroke="#047857" d="M854.43,-204.74C854.43,-204.74 803.57,-204.74 803.57,-204.74 798.37,-204.74 793.17,-199.54 793.17,-194.34 793.17,-194.34 793.17,-183.94 793.17,-183.94 793.17,-178.74 798.37,-173.54 803.57,-173.54 803.57,-173.54 854.43,-173.54 854.43,-173.54 859.63,-173.54 864.83,-178.74 864.83,-183.94 864.83,-183.94 864.83,-194.34 864.83,-194.34 864.83,-199.54 859.63,-204.74 854.43,-204.74"/>
<text text-anchor="middle" x="829" y="-192.14" font-family="Arial" font-size="10.00" fill="#000000">LED Lighting</text>
<text text-anchor="middle" x="829" y="-180.14" font-family="Arial" font-size="10.00" fill="#000000">System</text>
</g>
<!-- PhysicalStructure&#45;&gt;LightSystem -->
<g id="edge7" class="edge">
<title>PhysicalStructure-&gt;LightSystem</title>
<path fill="none" stroke="#047857" stroke-width="0.8" d="M728.92,-292.24C746.26,-274.54 784.92,-235.11 808.79,-210.76"/>
<polygon fill="#047857" stroke="#047857" stroke-width="0.8" points="810.52,-212.49 813.67,-205.78 807.02,-209.06 810.52,-212.49"/>
</g>
<!-- IrrigationSystem -->
<g id="node10" class="node">
<title>IrrigationSystem</title>
<path fill="#f5f5f5" stroke="#047857" d="M973.31,-204.74C973.31,-204.74 904.69,-204.74 904.69,-204.74 899.49,-204.74 894.29,-199.54 894.29,-194.34 894.29,-194.34 894.29,-183.94 894.29,-183.94 894.29,-178.74 899.49,-173.54 904.69,-173.54 904.69,-173.54 973.31,-173.54 973.31,-173.54 978.51,-173.54 983.71,-178.74 983.71,-183.94 983.71,-183.94 983.71,-194.34 983.71,-194.34 983.71,-199.54 978.51,-204.74 973.31,-204.74"/>
<text text-anchor="middle" x="939" y="-192.14" font-family="Arial" font-size="10.00" fill="#000000">Automated</text>
<text text-anchor="middle" x="939" y="-180.14" font-family="Arial" font-size="10.00" fill="#000000">Irrigation System</text>
</g>
<!-- PhysicalStructure&#45;&gt;IrrigationSystem -->
<g id="edge8" class="edge">
<title>PhysicalStructure-&gt;IrrigationSystem</title>
<path fill="none" stroke="#047857" stroke-width="0.8" d="M737.92,-292.24C773.78,-274.03 854.97,-232.8 902.49,-208.68"/>
<polygon fill="#047857" stroke="#047857" stroke-width="0.8" points="903.31,-211 908.45,-205.65 901.1,-206.63 903.31,-211"/>
</g>
<!-- ESP32 -->
<g id="node16" class="node">
<title>ESP32</title>
<path fill="#f5f5f5" stroke="#047857" d="M1207.59,-204.74C1207.59,-204.74 1148.41,-204.74 1148.41,-204.74 1143.21,-204.74 1138.01,-199.54 1138.01,-194.34 1138.01,-194.34 1138.01,-183.94 1138.01,-183.94 1138.01,-178.74 1143.21,-173.54 1148.41,-173.54 1148.41,-173.54 1207.59,-173.54 1207.59,-173.54 1212.79,-173.54 1217.99,-178.74 1217.99,-183.94 1217.99,-183.94 1217.99,-194.34 1217.99,-194.34 1217.99,-199.54 1212.79,-204.74 1207.59,-204.74"/>
<text text-anchor="middle" x="1178" y="-192.14" font-family="Arial" font-size="10.00" fill="#000000">ESP32</text>
<text text-anchor="middle" x="1178" y="-180.14" font-family="Arial" font-size="10.00" fill="#000000">Microcontroller</text>
</g>
<!-- ControlSystem&#45;&gt;ESP32 -->
<g id="edge14" class="edge">
<title>ControlSystem-&gt;ESP32</title>
<path fill="none" stroke="#047857" stroke-width="0.8" d="M1274.41,-292.24C1257.7,-274.54 1220.47,-235.11 1197.47,-210.76"/>
<polygon fill="#047857" stroke="#047857" stroke-width="0.8" points="1199.37,-209.2 1192.78,-205.79 1195.81,-212.56 1199.37,-209.2"/>
</g>
<!-- Sensors -->
<g id="node17" class="node">
<title>Sensors</title>
<path fill="#f5f5f5" stroke="#047857" d="M1312.98,-198.74C1312.98,-198.74 1253.02,-198.74 1253.02,-198.74 1249.82,-198.74 1246.62,-195.54 1246.62,-192.34 1246.62,-192.34 1246.62,-185.94 1246.62,-185.94 1246.62,-182.74 1249.82,-179.54 1253.02,-179.54 1253.02,-179.54 1312.98,-179.54 1312.98,-179.54 1316.18,-179.54 1319.38,-182.74 1319.38,-185.94 1319.38,-185.94 1319.38,-192.34 1319.38,-192.34 1319.38,-195.54 1316.18,-198.74 1312.98,-198.74"/>
<text text-anchor="middle" x="1283" y="-186.14" font-family="Arial" font-size="10.00" fill="#000000">Sensor Array</text>
</g>
<!-- ControlSystem&#45;&gt;Sensors -->
<g id="edge15" class="edge">
<title>ControlSystem-&gt;Sensors</title>
<path fill="none" stroke="#047857" stroke-width="0.8" d="M1283,-292.24C1283,-273.65 1283,-231.09 1283,-207.2"/>
<polygon fill="#047857" stroke="#047857" stroke-width="0.8" points="1285.45,-207.26 1283,-200.26 1280.55,-207.26 1285.45,-207.26"/>
</g>
<!-- Actuators -->
<g id="node18" class="node">
<title>Actuators</title>
<path fill="#f5f5f5" stroke="#047857" d="M1489.92,-198.74C1489.92,-198.74 1446.08,-198.74 1446.08,-198.74 1442.88,-198.74 1439.68,-195.54 1439.68,-192.34 1439.68,-192.34 1439.68,-185.94 1439.68,-185.94 1439.68,-182.74 1442.88,-179.54 1446.08,-179.54 1446.08,-179.54 1489.92,-179.54 1489.92,-179.54 1493.12,-179.54 1496.32,-182.74 1496.32,-185.94 1496.32,-185.94 1496.32,-192.34 1496.32,-192.34 1496.32,-195.54 1493.12,-198.74 1489.92,-198.74"/>
<text text-anchor="middle" x="1468" y="-186.14" font-family="Arial" font-size="10.00" fill="#000000">Actuators</text>
</g>
<!-- ControlSystem&#45;&gt;Actuators -->
<g id="edge16" class="edge">
<title>ControlSystem-&gt;Actuators</title>
<path fill="none" stroke="#047857" stroke-width="0.8" d="M1298.14,-292.24C1330.88,-272.56 1408.36,-225.98 1446.31,-203.18"/>
<polygon fill="#047857" stroke="#047857" stroke-width="0.8" points="1447.14,-205.53 1451.87,-199.83 1444.61,-201.34 1447.14,-205.53"/>
</g>
<!-- WiFiModule -->
<g id="node19" class="node">
<title>WiFiModule</title>
<path fill="#f5f5f5" stroke="#047857" d="M1584.03,-204.74C1584.03,-204.74 1535.97,-204.74 1535.97,-204.74 1530.77,-204.74 1525.57,-199.54 1525.57,-194.34 1525.57,-194.34 1525.57,-183.94 1525.57,-183.94 1525.57,-178.74 1530.77,-173.54 1535.97,-173.54 1535.97,-173.54 1584.03,-173.54 1584.03,-173.54 1589.23,-173.54 1594.43,-178.74 1594.43,-183.94 1594.43,-183.94 1594.43,-194.34 1594.43,-194.34 1594.43,-199.54 1589.23,-204.74 1584.03,-204.74"/>
<text text-anchor="middle" x="1560" y="-192.14" font-family="Arial" font-size="10.00" fill="#000000">WiFi</text>
<text text-anchor="middle" x="1560" y="-180.14" font-family="Arial" font-size="10.00" fill="#000000">Connectivity</text>
</g>
<!-- ControlSystem&#45;&gt;WiFiModule -->
<g id="edge17" class="edge">
<title>ControlSystem-&gt;WiFiModule</title>
<path fill="none" stroke="#047857" stroke-width="0.8" d="M1306.04,-292.35C1347.25,-276.25 1436.29,-241.28 1511,-210.74 1513.31,-209.79 1515.67,-208.82 1518.06,-207.83"/>
<polygon fill="#047857" stroke="#047857" stroke-width="0.8" points="1518.59,-210.26 1524.12,-205.31 1516.71,-205.74 1518.59,-210.26"/>
</g>
<!-- WaterRecycling -->
<g id="node30" class="node">
<title>WaterRecycling</title>
<path fill="#f5f5f5" stroke="#047857" d="M1748.48,-204.74C1748.48,-204.74 1681.52,-204.74 1681.52,-204.74 1676.32,-204.74 1671.12,-199.54 1671.12,-194.34 1671.12,-194.34 1671.12,-183.94 1671.12,-183.94 1671.12,-178.74 1676.32,-173.54 1681.52,-173.54 1681.52,-173.54 1748.48,-173.54 1748.48,-173.54 1753.68,-173.54 1758.88,-178.74 1758.88,-183.94 1758.88,-183.94 1758.88,-194.34 1758.88,-194.34 1758.88,-199.54 1753.68,-204.74 1748.48,-204.74"/>
<text text-anchor="middle" x="1715" y="-192.14" font-family="Arial" font-size="10.00" fill="#000000">Water Recycling</text>
<text text-anchor="middle" x="1715" y="-180.14" font-family="Arial" font-size="10.00" fill="#000000">90% Less Water</text>
</g>
<!-- SustainabilityFeatures&#45;&gt;WaterRecycling -->
<g id="edge28" class="edge">
<title>SustainabilityFeatures-&gt;WaterRecycling</title>
<path fill="none" stroke="#047857" stroke-width="0.8" d="M1816.22,-286.34C1795.61,-266.75 1759.44,-232.37 1736.38,-210.45"/>
<polygon fill="#047857" stroke="#047857" stroke-width="0.8" points="1738.17,-208.78 1731.41,-205.73 1734.79,-212.33 1738.17,-208.78"/>
</g>
<!-- SpaceEfficiency -->
<g id="node31" class="node">
<title>SpaceEfficiency</title>
<path fill="#f5f5f5" stroke="#047857" d="M1865.76,-204.74C1865.76,-204.74 1798.24,-204.74 1798.24,-204.74 1793.04,-204.74 1787.84,-199.54 1787.84,-194.34 1787.84,-194.34 1787.84,-183.94 1787.84,-183.94 1787.84,-178.74 1793.04,-173.54 1798.24,-173.54 1798.24,-173.54 1865.76,-173.54 1865.76,-173.54 1870.96,-173.54 1876.16,-178.74 1876.16,-183.94 1876.16,-183.94 1876.16,-194.34 1876.16,-194.34 1876.16,-199.54 1870.96,-204.74 1865.76,-204.74"/>
<text text-anchor="middle" x="1832" y="-192.14" font-family="Arial" font-size="10.00" fill="#000000">Space Efficiency</text>
<text text-anchor="middle" x="1832" y="-180.14" font-family="Arial" font-size="10.00" fill="#000000">Vertical Design</text>
</g>
<!-- SustainabilityFeatures&#45;&gt;SpaceEfficiency -->
<g id="edge29" class="edge">
<title>SustainabilityFeatures-&gt;SpaceEfficiency</title>
<path fill="none" stroke="#047857" stroke-width="0.8" d="M1832,-286.34C1832,-267.5 1832,-234.98 1832,-213.02"/>
<polygon fill="#047857" stroke="#047857" stroke-width="0.8" points="1834.45,-213.11 1832,-206.11 1829.55,-213.11 1834.45,-213.11"/>
</g>
<!-- EnergyEfficiency -->
<g id="node32" class="node">
<title>EnergyEfficiency</title>
<path fill="#f5f5f5" stroke="#047857" d="M1986.43,-204.74C1986.43,-204.74 1915.57,-204.74 1915.57,-204.74 1910.37,-204.74 1905.17,-199.54 1905.17,-194.34 1905.17,-194.34 1905.17,-183.94 1905.17,-183.94 1905.17,-178.74 1910.37,-173.54 1915.57,-173.54 1915.57,-173.54 1986.43,-173.54 1986.43,-173.54 1991.63,-173.54 1996.83,-178.74 1996.83,-183.94 1996.83,-183.94 1996.83,-194.34 1996.83,-194.34 1996.83,-199.54 1991.63,-204.74 1986.43,-204.74"/>
<text text-anchor="middle" x="1951" y="-192.14" font-family="Arial" font-size="10.00" fill="#000000">Energy Efficiency</text>
<text text-anchor="middle" x="1951" y="-180.14" font-family="Arial" font-size="10.00" fill="#000000">Optimized LEDs</text>
</g>
<!-- SustainabilityFeatures&#45;&gt;EnergyEfficiency -->
<g id="edge30" class="edge">
<title>SustainabilityFeatures-&gt;EnergyEfficiency</title>
<path fill="none" stroke="#047857" stroke-width="0.8" d="M1848.05,-286.34C1869.01,-266.75 1905.81,-232.37 1929.26,-210.45"/>
<polygon fill="#047857" stroke="#047857" stroke-width="0.8" points="1930.88,-212.29 1934.32,-205.72 1927.53,-208.71 1930.88,-212.29"/>
</g>
<!-- Vision2030 -->
<g id="node33" class="node">
<title>Vision2030</title>
<path fill="#f5f5f5" stroke="#047857" d="M2110.11,-204.74C2110.11,-204.74 2035.89,-204.74 2035.89,-204.74 2030.69,-204.74 2025.49,-199.54 2025.49,-194.34 2025.49,-194.34 2025.49,-183.94 2025.49,-183.94 2025.49,-178.74 2030.69,-173.54 2035.89,-173.54 2035.89,-173.54 2110.11,-173.54 2110.11,-173.54 2115.31,-173.54 2120.51,-178.74 2120.51,-183.94 2120.51,-183.94 2120.51,-194.34 2120.51,-194.34 2120.51,-199.54 2115.31,-204.74 2110.11,-204.74"/>
<text text-anchor="middle" x="2073" y="-192.14" font-family="Arial" font-size="10.00" fill="#000000">Saudi Vision 2030</text>
<text text-anchor="middle" x="2073" y="-180.14" font-family="Arial" font-size="10.00" fill="#000000">Alignment</text>
</g>
<!-- SustainabilityFeatures&#45;&gt;Vision2030 -->
<g id="edge31" class="edge">
<title>SustainabilityFeatures-&gt;Vision2030</title>
<path fill="none" stroke="#047857" stroke-width="0.8" d="M1864.5,-286.34C1908.29,-266.14 1986.15,-230.21 2033.33,-208.44"/>
<polygon fill="#047857" stroke="#047857" stroke-width="0.8" points="2034.2,-210.74 2039.53,-205.58 2032.15,-206.29 2034.2,-210.74"/>
</g>
<!-- Dashboard -->
<g id="node34" class="node">
<title>Dashboard</title>
<path fill="#f5f5f5" stroke="#047857" d="M2313.93,-198.74C2313.93,-198.74 2240.07,-198.74 2240.07,-198.74 2236.87,-198.74 2233.67,-195.54 2233.67,-192.34 2233.67,-192.34 2233.67,-185.94 2233.67,-185.94 2233.67,-182.74 2236.87,-179.54 2240.07,-179.54 2240.07,-179.54 2313.93,-179.54 2313.93,-179.54 2317.13,-179.54 2320.33,-182.74 2320.33,-185.94 2320.33,-185.94 2320.33,-192.34 2320.33,-192.34 2320.33,-195.54 2317.13,-198.74 2313.93,-198.74"/>
<text text-anchor="middle" x="2277" y="-186.14" font-family="Arial" font-size="10.00" fill="#000000">Web Dashboard</text>
</g>
<!-- UserInterface&#45;&gt;Dashboard -->
<g id="edge32" class="edge">
<title>UserInterface-&gt;Dashboard</title>
<path fill="none" stroke="#047857" stroke-width="0.8" d="M2277,-292.24C2277,-273.65 2277,-231.09 2277,-207.2"/>
<polygon fill="#047857" stroke="#047857" stroke-width="0.8" points="2279.45,-207.26 2277,-200.26 2274.55,-207.26 2279.45,-207.26"/>
</g>
<!-- LocalDisplay -->
<g id="node35" class="node">
<title>LocalDisplay</title>
<path fill="#f5f5f5" stroke="#047857" d="M2412.26,-204.74C2412.26,-204.74 2359.74,-204.74 2359.74,-204.74 2354.54,-204.74 2349.34,-199.54 2349.34,-194.34 2349.34,-194.34 2349.34,-183.94 2349.34,-183.94 2349.34,-178.74 2354.54,-173.54 2359.74,-173.54 2359.74,-173.54 2412.26,-173.54 2412.26,-173.54 2417.46,-173.54 2422.66,-178.74 2422.66,-183.94 2422.66,-183.94 2422.66,-194.34 2422.66,-194.34 2422.66,-199.54 2417.46,-204.74 2412.26,-204.74"/>
<text text-anchor="middle" x="2386" y="-192.14" font-family="Arial" font-size="10.00" fill="#000000">TFT Display</text>
<text text-anchor="middle" x="2386" y="-180.14" font-family="Arial" font-size="10.00" fill="#000000">Local Control</text>
</g>
<!-- UserInterface&#45;&gt;LocalDisplay -->
<g id="edge33" class="edge">
<title>UserInterface-&gt;LocalDisplay</title>
<path fill="none" stroke="#047857" stroke-width="0.8" d="M2285.92,-292.24C2303.26,-274.54 2341.92,-235.11 2365.79,-210.76"/>
<polygon fill="#047857" stroke="#047857" stroke-width="0.8" points="2367.52,-212.49 2370.67,-205.78 2364.02,-209.06 2367.52,-212.49"/>
</g>
<!-- Level1 -->
<g id="node11" class="node">
<title>Level1</title>
<path fill="#f5f5f5" stroke="#047857" d="M591.07,-122.14C591.07,-122.14 560.93,-122.14 560.93,-122.14 556.53,-122.14 552.13,-117.74 552.13,-113.34 552.13,-113.34 552.13,-104.54 552.13,-104.54 552.13,-100.14 556.53,-95.74 560.93,-95.74 560.93,-95.74 591.07,-95.74 591.07,-95.74 595.47,-95.74 599.87,-100.14 599.87,-104.54 599.87,-104.54 599.87,-113.34 599.87,-113.34 599.87,-117.74 595.47,-122.14 591.07,-122.14"/>
<text text-anchor="middle" x="576" y="-111.34" font-family="Arial" font-size="8.00" fill="#000000">Level 1</text>
<text text-anchor="middle" x="576" y="-101.74" font-family="Arial" font-size="8.00" fill="#000000">(3 plants)</text>
</g>
<!-- GrowingLevels&#45;&gt;Level1 -->
<g id="edge9" class="edge">
<title>GrowingLevels-&gt;Level1</title>
<path fill="none" stroke="#047857" stroke-width="0.8" d="M594.57,-173.06C590.98,-160.85 585.89,-143.56 581.95,-130.15"/>
<polygon fill="#047857" stroke="#047857" stroke-width="0.8" points="584.33,-129.58 580.01,-123.55 579.63,-130.96 584.33,-129.58"/>
</g>
<!-- Level2 -->
<g id="node12" class="node">
<title>Level2</title>
<path fill="#f5f5f5" stroke="#047857" d="M668.07,-122.14C668.07,-122.14 637.93,-122.14 637.93,-122.14 633.53,-122.14 629.13,-117.74 629.13,-113.34 629.13,-113.34 629.13,-104.54 629.13,-104.54 629.13,-100.14 633.53,-95.74 637.93,-95.74 637.93,-95.74 668.07,-95.74 668.07,-95.74 672.47,-95.74 676.87,-100.14 676.87,-104.54 676.87,-104.54 676.87,-113.34 676.87,-113.34 676.87,-117.74 672.47,-122.14 668.07,-122.14"/>
<text text-anchor="middle" x="653" y="-111.34" font-family="Arial" font-size="8.00" fill="#000000">Level 2</text>
<text text-anchor="middle" x="653" y="-101.74" font-family="Arial" font-size="8.00" fill="#000000">(3 plants)</text>
</g>
<!-- GrowingLevels&#45;&gt;Level2 -->
<g id="edge10" class="edge">
<title>GrowingLevels-&gt;Level2</title>
<path fill="none" stroke="#047857" stroke-width="0.8" d="M609.41,-173.06C618.08,-160.51 630.46,-142.57 639.82,-129.02"/>
<polygon fill="#047857" stroke="#047857" stroke-width="0.8" points="641.75,-130.54 643.71,-123.39 637.72,-127.76 641.75,-130.54"/>
</g>
<!-- Level3 -->
<g id="node13" class="node">
<title>Level3</title>
<path fill="#f5f5f5" stroke="#047857" d="M745.07,-122.14C745.07,-122.14 714.93,-122.14 714.93,-122.14 710.53,-122.14 706.13,-117.74 706.13,-113.34 706.13,-113.34 706.13,-104.54 706.13,-104.54 706.13,-100.14 710.53,-95.74 714.93,-95.74 714.93,-95.74 745.07,-95.74 745.07,-95.74 749.47,-95.74 753.87,-100.14 753.87,-104.54 753.87,-104.54 753.87,-113.34 753.87,-113.34 753.87,-117.74 749.47,-122.14 745.07,-122.14"/>
<text text-anchor="middle" x="730" y="-111.34" font-family="Arial" font-size="8.00" fill="#000000">Level 3</text>
<text text-anchor="middle" x="730" y="-101.74" font-family="Arial" font-size="8.00" fill="#000000">(3 plants)</text>
</g>
<!-- GrowingLevels&#45;&gt;Level3 -->
<g id="edge11" class="edge">
<title>GrowingLevels-&gt;Level3</title>
<path fill="none" stroke="#047857" stroke-width="0.8" d="M624.26,-173.06C646.63,-159.7 679.22,-140.25 702.3,-126.47"/>
<polygon fill="#047857" stroke="#047857" stroke-width="0.8" points="703.34,-128.7 708.09,-123.01 700.83,-124.5 703.34,-128.7"/>
</g>
<!-- Level4 -->
<g id="node14" class="node">
<title>Level4</title>
<path fill="#f5f5f5" stroke="#047857" d="M822.07,-122.14C822.07,-122.14 791.93,-122.14 791.93,-122.14 787.53,-122.14 783.13,-117.74 783.13,-113.34 783.13,-113.34 783.13,-104.54 783.13,-104.54 783.13,-100.14 787.53,-95.74 791.93,-95.74 791.93,-95.74 822.07,-95.74 822.07,-95.74 826.47,-95.74 830.87,-100.14 830.87,-104.54 830.87,-104.54 830.87,-113.34 830.87,-113.34 830.87,-117.74 826.47,-122.14 822.07,-122.14"/>
<text text-anchor="middle" x="807" y="-111.34" font-family="Arial" font-size="8.00" fill="#000000">Level 4</text>
<text text-anchor="middle" x="807" y="-101.74" font-family="Arial" font-size="8.00" fill="#000000">(3 plants)</text>
</g>
<!-- GrowingLevels&#45;&gt;Level4 -->
<g id="edge12" class="edge">
<title>GrowingLevels-&gt;Level4</title>
<path fill="none" stroke="#047857" stroke-width="0.8" d="M634.61,-173.07C643.22,-169.53 652.41,-165.83 661,-162.54 708.12,-144.46 720.59,-141.83 768,-124.54 770.38,-123.67 772.83,-122.77 775.3,-121.85"/>
<polygon fill="#047857" stroke="#047857" stroke-width="0.8" points="775.84,-124.27 781.55,-119.53 774.13,-119.67 775.84,-124.27"/>
</g>
<!-- Level5 -->
<g id="node15" class="node">
<title>Level5</title>
<path fill="#f5f5f5" stroke="#047857" d="M899.07,-122.14C899.07,-122.14 868.93,-122.14 868.93,-122.14 864.53,-122.14 860.13,-117.74 860.13,-113.34 860.13,-113.34 860.13,-104.54 860.13,-104.54 860.13,-100.14 864.53,-95.74 868.93,-95.74 868.93,-95.74 899.07,-95.74 899.07,-95.74 903.47,-95.74 907.87,-100.14 907.87,-104.54 907.87,-104.54 907.87,-113.34 907.87,-113.34 907.87,-117.74 903.47,-122.14 899.07,-122.14"/>
<text text-anchor="middle" x="884" y="-111.34" font-family="Arial" font-size="8.00" fill="#000000">Level 5</text>
<text text-anchor="middle" x="884" y="-101.74" font-family="Arial" font-size="8.00" fill="#000000">(3 plants)</text>
</g>
<!-- GrowingLevels&#45;&gt;Level5 -->
<g id="edge13" class="edge">
<title>GrowingLevels-&gt;Level5</title>
<path fill="none" stroke="#047857" stroke-width="0.8" d="M632.04,-173.15C641.29,-169.32 651.43,-165.47 661,-162.54 740.83,-138.05 764.77,-147.69 845,-124.54 847.43,-123.83 849.93,-123.05 852.42,-122.22"/>
<polygon fill="#047857" stroke="#047857" stroke-width="0.8" points="852.91,-124.65 858.71,-120.03 851.29,-120.02 852.91,-124.65"/>
</g>
<!-- DHT22 -->
<g id="node20" class="node">
<title>DHT22</title>
<path fill="#f5f5f5" stroke="#047857" d="M1069.07,-122.14C1069.07,-122.14 1010.93,-122.14 1010.93,-122.14 1006.53,-122.14 1002.13,-117.74 1002.13,-113.34 1002.13,-113.34 1002.13,-104.54 1002.13,-104.54 1002.13,-100.14 1006.53,-95.74 1010.93,-95.74 1010.93,-95.74 1069.07,-95.74 1069.07,-95.74 1073.47,-95.74 1077.87,-100.14 1077.87,-104.54 1077.87,-104.54 1077.87,-113.34 1077.87,-113.34 1077.87,-117.74 1073.47,-122.14 1069.07,-122.14"/>
<text text-anchor="middle" x="1040" y="-111.34" font-family="Arial" font-size="8.00" fill="#000000">DHT22</text>
<text text-anchor="middle" x="1040" y="-101.74" font-family="Arial" font-size="8.00" fill="#000000">Temp &amp; Humidity</text>
</g>
<!-- Sensors&#45;&gt;DHT22 -->
<g id="edge18" class="edge">
<title>Sensors-&gt;DHT22</title>
<path fill="none" stroke="#047857" stroke-width="0.8" d="M1267.29,-179.23C1257.39,-173.88 1244.21,-167.22 1232,-162.54 1172.2,-139.61 1154.76,-141.48 1093,-124.54 1090.61,-123.88 1088.15,-123.2 1085.68,-122.52"/>
<polygon fill="#047857" stroke="#047857" stroke-width="0.8" points="1086.78,-120.29 1079.38,-120.79 1085.48,-125.01 1086.78,-120.29"/>
</g>
<!-- TDSSensor -->
<g id="node21" class="node">
<title>TDSSensor</title>
<path fill="#f5f5f5" stroke="#047857" d="M1166.08,-122.14C1166.08,-122.14 1115.92,-122.14 1115.92,-122.14 1111.52,-122.14 1107.12,-117.74 1107.12,-113.34 1107.12,-113.34 1107.12,-104.54 1107.12,-104.54 1107.12,-100.14 1111.52,-95.74 1115.92,-95.74 1115.92,-95.74 1166.08,-95.74 1166.08,-95.74 1170.48,-95.74 1174.88,-100.14 1174.88,-104.54 1174.88,-104.54 1174.88,-113.34 1174.88,-113.34 1174.88,-117.74 1170.48,-122.14 1166.08,-122.14"/>
<text text-anchor="middle" x="1141" y="-111.34" font-family="Arial" font-size="8.00" fill="#000000">TDS Sensor</text>
<text text-anchor="middle" x="1141" y="-101.74" font-family="Arial" font-size="8.00" fill="#000000">Nutrient Levels</text>
</g>
<!-- Sensors&#45;&gt;TDSSensor -->
<g id="edge19" class="edge">
<title>Sensors-&gt;TDSSensor</title>
<path fill="none" stroke="#047857" stroke-width="0.8" d="M1266.71,-179.16C1243.34,-166.29 1199.9,-142.37 1170.72,-126.3"/>
<polygon fill="#047857" stroke="#047857" stroke-width="0.8" points="1172,-124.21 1164.69,-122.98 1169.64,-128.5 1172,-124.21"/>
</g>
<!-- pHSensor -->
<g id="node22" class="node">
<title>pHSensor</title>
<path fill="#f5f5f5" stroke="#047857" d="M1261.63,-122.14C1261.63,-122.14 1212.37,-122.14 1212.37,-122.14 1207.97,-122.14 1203.57,-117.74 1203.57,-113.34 1203.57,-113.34 1203.57,-104.54 1203.57,-104.54 1203.57,-100.14 1207.97,-95.74 1212.37,-95.74 1212.37,-95.74 1261.63,-95.74 1261.63,-95.74 1266.03,-95.74 1270.43,-100.14 1270.43,-104.54 1270.43,-104.54 1270.43,-113.34 1270.43,-113.34 1270.43,-117.74 1266.03,-122.14 1261.63,-122.14"/>
<text text-anchor="middle" x="1237" y="-111.34" font-family="Arial" font-size="8.00" fill="#000000">pH Sensor</text>
<text text-anchor="middle" x="1237" y="-101.74" font-family="Arial" font-size="8.00" fill="#000000">Water Balance</text>
</g>
<!-- Sensors&#45;&gt;pHSensor -->
<g id="edge20" class="edge">
<title>Sensors-&gt;pHSensor</title>
<path fill="none" stroke="#047857" stroke-width="0.8" d="M1277.72,-179.16C1270.6,-167.06 1257.73,-145.17 1248.36,-129.24"/>
<polygon fill="#047857" stroke="#047857" stroke-width="0.8" points="1250.61,-128.23 1244.94,-123.44 1246.38,-130.72 1250.61,-128.23"/>
</g>
<!-- WaterTemp -->
<g id="node23" class="node">
<title>WaterTemp</title>
<path fill="#f5f5f5" stroke="#047857" d="M1349.4,-122.14C1349.4,-122.14 1308.6,-122.14 1308.6,-122.14 1304.2,-122.14 1299.8,-117.74 1299.8,-113.34 1299.8,-113.34 1299.8,-104.54 1299.8,-104.54 1299.8,-100.14 1304.2,-95.74 1308.6,-95.74 1308.6,-95.74 1349.4,-95.74 1349.4,-95.74 1353.8,-95.74 1358.2,-100.14 1358.2,-104.54 1358.2,-104.54 1358.2,-113.34 1358.2,-113.34 1358.2,-117.74 1353.8,-122.14 1349.4,-122.14"/>
<text text-anchor="middle" x="1329" y="-111.34" font-family="Arial" font-size="8.00" fill="#000000">Water Temp</text>
<text text-anchor="middle" x="1329" y="-101.74" font-family="Arial" font-size="8.00" fill="#000000">Sensor</text>
</g>
<!-- Sensors&#45;&gt;WaterTemp -->
<g id="edge21" class="edge">
<title>Sensors-&gt;WaterTemp</title>
<path fill="none" stroke="#047857" stroke-width="0.8" d="M1288.28,-179.16C1295.4,-167.06 1308.27,-145.17 1317.64,-129.24"/>
<polygon fill="#047857" stroke="#047857" stroke-width="0.8" points="1319.62,-130.72 1321.06,-123.44 1315.39,-128.23 1319.62,-130.72"/>
</g>
<!-- WaterLevel -->
<g id="node24" class="node">
<title>WaterLevel</title>
<path fill="#f5f5f5" stroke="#047857" d="M1435.74,-122.14C1435.74,-122.14 1396.26,-122.14 1396.26,-122.14 1391.86,-122.14 1387.46,-117.74 1387.46,-113.34 1387.46,-113.34 1387.46,-104.54 1387.46,-104.54 1387.46,-100.14 1391.86,-95.74 1396.26,-95.74 1396.26,-95.74 1435.74,-95.74 1435.74,-95.74 1440.14,-95.74 1444.54,-100.14 1444.54,-104.54 1444.54,-104.54 1444.54,-113.34 1444.54,-113.34 1444.54,-117.74 1440.14,-122.14 1435.74,-122.14"/>
<text text-anchor="middle" x="1416" y="-111.34" font-family="Arial" font-size="8.00" fill="#000000">Water Level</text>
<text text-anchor="middle" x="1416" y="-101.74" font-family="Arial" font-size="8.00" fill="#000000">Sensor</text>
</g>
<!-- Sensors&#45;&gt;WaterLevel -->
<g id="edge22" class="edge">
<title>Sensors-&gt;WaterLevel</title>
<path fill="none" stroke="#047857" stroke-width="0.8" d="M1298.26,-179.16C1320.05,-166.35 1360.49,-142.57 1387.82,-126.51"/>
<polygon fill="#047857" stroke="#047857" stroke-width="0.8" points="1388.97,-128.67 1393.76,-123.01 1386.49,-124.45 1388.97,-128.67"/>
</g>
<!-- LEDController -->
<g id="node25" class="node">
<title>LEDController</title>
<path fill="#f5f5f5" stroke="#047857" d="M1543.59,-124.54C1543.59,-124.54 1484.41,-124.54 1484.41,-124.54 1479.21,-124.54 1474.01,-119.34 1474.01,-114.14 1474.01,-114.14 1474.01,-103.74 1474.01,-103.74 1474.01,-98.54 1479.21,-93.34 1484.41,-93.34 1484.41,-93.34 1543.59,-93.34 1543.59,-93.34 1548.79,-93.34 1553.99,-98.54 1553.99,-103.74 1553.99,-103.74 1553.99,-114.14 1553.99,-114.14 1553.99,-119.34 1548.79,-124.54 1543.59,-124.54"/>
<text text-anchor="middle" x="1514" y="-111.94" font-family="Arial" font-size="10.00" fill="#000000">LED Controller</text>
<text text-anchor="middle" x="1514" y="-99.94" font-family="Arial" font-size="10.00" fill="#000000">(90 LEDs)</text>
</g>
<!-- Actuators&#45;&gt;LEDController -->
<g id="edge23" class="edge">
<title>Actuators-&gt;LEDController</title>
<path fill="none" stroke="#047857" stroke-width="0.8" d="M1473.28,-179.16C1480.03,-167.68 1491.96,-147.41 1501.16,-131.76"/>
<polygon fill="#047857" stroke="#047857" stroke-width="0.8" points="1503.12,-133.26 1504.56,-125.98 1498.9,-130.78 1503.12,-133.26"/>
</g>
<!-- WaterPump -->
<g id="node26" class="node">
<title>WaterPump</title>
<path fill="#f5f5f5" stroke="#047857" d="M1642.59,-124.54C1642.59,-124.54 1593.41,-124.54 1593.41,-124.54 1588.21,-124.54 1583.01,-119.34 1583.01,-114.14 1583.01,-114.14 1583.01,-103.74 1583.01,-103.74 1583.01,-98.54 1588.21,-93.34 1593.41,-93.34 1593.41,-93.34 1642.59,-93.34 1642.59,-93.34 1647.79,-93.34 1652.99,-98.54 1652.99,-103.74 1652.99,-103.74 1652.99,-114.14 1652.99,-114.14 1652.99,-119.34 1647.79,-124.54 1642.59,-124.54"/>
<text text-anchor="middle" x="1618" y="-111.94" font-family="Arial" font-size="10.00" fill="#000000">Water Pump</text>
<text text-anchor="middle" x="1618" y="-99.94" font-family="Arial" font-size="10.00" fill="#000000">Irrigation</text>
</g>
<!-- Actuators&#45;&gt;WaterPump -->
<g id="edge24" class="edge">
<title>Actuators-&gt;WaterPump</title>
<path fill="none" stroke="#047857" stroke-width="0.8" d="M1482.56,-179.07C1490.81,-174.04 1501.38,-167.75 1511,-162.54 1533.04,-150.58 1558.18,-138.16 1578.55,-128.4"/>
<polygon fill="#047857" stroke="#047857" stroke-width="0.8" points="1579.47,-130.67 1584.73,-125.45 1577.36,-126.25 1579.47,-130.67"/>
</g>
<!-- SunMode -->
<g id="node27" class="node">
<title>SunMode</title>
<ellipse fill="#ffeb95" stroke="#047857" cx="1365" cy="-31.67" rx="38.47" ry="18.67"/>
<text text-anchor="middle" x="1365" y="-34.07" font-family="Arial" font-size="8.00" fill="#000000">Sun Mode</text>
<text text-anchor="middle" x="1365" y="-24.47" font-family="Arial" font-size="8.00" fill="#000000">For Growth</text>
</g>
<!-- LEDController&#45;&gt;SunMode -->
<g id="edge25" class="edge">
<title>LEDController-&gt;SunMode</title>
<path fill="none" stroke="#047857" stroke-width="0.8" d="M1484.21,-92.88C1459.32,-80.31 1423.86,-62.4 1398.09,-49.39"/>
<polygon fill="#047857" stroke="#047857" stroke-width="0.8" points="1399.2,-47.2 1391.85,-46.23 1396.99,-51.57 1399.2,-47.2"/>
</g>
<!-- RelaxMode -->
<g id="node28" class="node">
<title>RelaxMode</title>
<ellipse fill="#95c8ff" stroke="#047857" cx="1480" cy="-31.67" rx="47.92" ry="18.67"/>
<text text-anchor="middle" x="1480" y="-34.07" font-family="Arial" font-size="8.00" fill="#000000">Relaxing Mode</text>
<text text-anchor="middle" x="1480" y="-24.47" font-family="Arial" font-size="8.00" fill="#000000">Maintenance</text>
</g>
<!-- LEDController&#45;&gt;RelaxMode -->
<g id="edge26" class="edge">
<title>LEDController-&gt;RelaxMode</title>
<path fill="none" stroke="#047857" stroke-width="0.8" d="M1507.28,-93.06C1502.74,-83.01 1496.63,-69.49 1491.35,-57.79"/>
<polygon fill="#047857" stroke="#047857" stroke-width="0.8" points="1493.63,-56.89 1488.52,-51.52 1489.17,-58.91 1493.63,-56.89"/>
</g>
<!-- SleepMode -->
<g id="node29" class="node">
<title>SleepMode</title>
<ellipse fill="#ff9595" stroke="#047857" cx="1605" cy="-31.67" rx="47.92" ry="18.67"/>
<text text-anchor="middle" x="1605" y="-34.07" font-family="Arial" font-size="8.00" fill="#000000">Sleeping Mode</text>
<text text-anchor="middle" x="1605" y="-24.47" font-family="Arial" font-size="8.00" fill="#000000">Rest Period</text>
</g>
<!-- LEDController&#45;&gt;SleepMode -->
<g id="edge27" class="edge">
<title>LEDController-&gt;SleepMode</title>
<path fill="none" stroke="#047857" stroke-width="0.8" d="M1531.98,-93.06C1545.39,-81.97 1563.92,-66.64 1578.96,-54.21"/>
<polygon fill="#047857" stroke="#047857" stroke-width="0.8" points="1580.4,-56.2 1584.23,-49.85 1577.27,-52.42 1580.4,-56.2"/>
</g>
<!-- RemoteAccess -->
<g id="node36" class="node">
<title>RemoteAccess</title>
<path fill="#dddddd" stroke="#047857" d="M2200.41,-122.14C2200.41,-122.14 2147.59,-122.14 2147.59,-122.14 2143.19,-122.14 2138.79,-117.74 2138.79,-113.34 2138.79,-113.34 2138.79,-104.54 2138.79,-104.54 2138.79,-100.14 2143.19,-95.74 2147.59,-95.74 2147.59,-95.74 2200.41,-95.74 2200.41,-95.74 2204.81,-95.74 2209.21,-100.14 2209.21,-104.54 2209.21,-104.54 2209.21,-113.34 2209.21,-113.34 2209.21,-117.74 2204.81,-122.14 2200.41,-122.14"/>
<text text-anchor="middle" x="2174" y="-111.34" font-family="Arial" font-size="8.00" fill="#000000">Remote Access</text>
<text text-anchor="middle" x="2174" y="-101.74" font-family="Arial" font-size="8.00" fill="#000000">Control</text>
</g>
<!-- Dashboard&#45;&gt;RemoteAccess -->
<g id="edge34" class="edge">
<title>Dashboard-&gt;RemoteAccess</title>
<path fill="none" stroke="#047857" stroke-width="0.8" d="M2265.18,-179.16C2248.59,-166.57 2218.05,-143.38 2196.92,-127.33"/>
<polygon fill="#047857" stroke="#047857" stroke-width="0.8" points="2198.43,-125.41 2191.38,-123.13 2195.47,-129.31 2198.43,-125.41"/>
</g>
<!-- DataVisualization -->
<g id="node37" class="node">
<title>DataVisualization</title>
<path fill="#dddddd" stroke="#047857" d="M2307.42,-122.14C2307.42,-122.14 2246.58,-122.14 2246.58,-122.14 2242.18,-122.14 2237.78,-117.74 2237.78,-113.34 2237.78,-113.34 2237.78,-104.54 2237.78,-104.54 2237.78,-100.14 2242.18,-95.74 2246.58,-95.74 2246.58,-95.74 2307.42,-95.74 2307.42,-95.74 2311.82,-95.74 2316.22,-100.14 2316.22,-104.54 2316.22,-104.54 2316.22,-113.34 2316.22,-113.34 2316.22,-117.74 2311.82,-122.14 2307.42,-122.14"/>
<text text-anchor="middle" x="2277" y="-111.34" font-family="Arial" font-size="8.00" fill="#000000">Data Visualization</text>
<text text-anchor="middle" x="2277" y="-101.74" font-family="Arial" font-size="8.00" fill="#000000">Charts &amp; Trends</text>
</g>
<!-- Dashboard&#45;&gt;DataVisualization -->
<g id="edge35" class="edge">
<title>Dashboard-&gt;DataVisualization</title>
<path fill="none" stroke="#047857" stroke-width="0.8" d="M2277,-179.16C2277,-167.38 2277,-146.35 2277,-130.55"/>
<polygon fill="#047857" stroke="#047857" stroke-width="0.8" points="2279.45,-130.61 2277,-123.61 2274.55,-130.61 2279.45,-130.61"/>
</g>
<!-- Controls -->
<g id="node38" class="node">
<title>Controls</title>
<path fill="#dddddd" stroke="#047857" d="M2409.74,-122.14C2409.74,-122.14 2354.26,-122.14 2354.26,-122.14 2349.86,-122.14 2345.46,-117.74 2345.46,-113.34 2345.46,-113.34 2345.46,-104.54 2345.46,-104.54 2345.46,-100.14 2349.86,-95.74 2354.26,-95.74 2354.26,-95.74 2409.74,-95.74 2409.74,-95.74 2414.14,-95.74 2418.54,-100.14 2418.54,-104.54 2418.54,-104.54 2418.54,-113.34 2418.54,-113.34 2418.54,-117.74 2414.14,-122.14 2409.74,-122.14"/>
<text text-anchor="middle" x="2382" y="-111.34" font-family="Arial" font-size="8.00" fill="#000000">System Controls</text>
<text text-anchor="middle" x="2382" y="-101.74" font-family="Arial" font-size="8.00" fill="#000000">LED &amp; Pump</text>
</g>
<!-- Dashboard&#45;&gt;Controls -->
<g id="edge36" class="edge">
<title>Dashboard-&gt;Controls</title>
<path fill="none" stroke="#047857" stroke-width="0.8" d="M2289.04,-179.16C2306.03,-166.51 2337.36,-143.18 2358.92,-127.13"/>
<polygon fill="#047857" stroke="#047857" stroke-width="0.8" points="2360.15,-129.27 2364.3,-123.12 2357.22,-125.34 2360.15,-129.27"/>
</g>
<!-- Alerts -->
<g id="node39" class="node">
<title>Alerts</title>
<path fill="#dddddd" stroke="#047857" d="M2502.07,-122.14C2502.07,-122.14 2455.93,-122.14 2455.93,-122.14 2451.53,-122.14 2447.13,-117.74 2447.13,-113.34 2447.13,-113.34 2447.13,-104.54 2447.13,-104.54 2447.13,-100.14 2451.53,-95.74 2455.93,-95.74 2455.93,-95.74 2502.07,-95.74 2502.07,-95.74 2506.47,-95.74 2510.87,-100.14 2510.87,-104.54 2510.87,-104.54 2510.87,-113.34 2510.87,-113.34 2510.87,-117.74 2506.47,-122.14 2502.07,-122.14"/>
<text text-anchor="middle" x="2479" y="-111.34" font-family="Arial" font-size="8.00" fill="#000000">System Alerts</text>
<text text-anchor="middle" x="2479" y="-101.74" font-family="Arial" font-size="8.00" fill="#000000">Notifications</text>
</g>
<!-- Dashboard&#45;&gt;Alerts -->
<g id="edge37" class="edge">
<title>Dashboard-&gt;Alerts</title>
<path fill="none" stroke="#047857" stroke-width="0.8" d="M2296.73,-179.04C2307.88,-174 2322.14,-167.72 2335,-162.54 2369.9,-148.48 2410.17,-133.9 2439.23,-123.67"/>
<polygon fill="#047857" stroke="#047857" stroke-width="0.8" points="2439.81,-126.07 2445.6,-121.44 2438.18,-121.44 2439.81,-126.07"/>
</g>
<!-- legend_title -->
<g id="node43" class="node">
<title>legend_title</title>
<path fill="#f5f5f5" stroke="none" d="M2725.17,-450.04C2725.17,-450.04 2596.83,-450.04 2596.83,-450.04 2593.63,-450.04 2590.43,-446.84 2590.43,-443.64 2590.43,-443.64 2590.43,-437.24 2590.43,-437.24 2590.43,-434.04 2593.63,-430.84 2596.83,-430.84 2596.83,-430.84 2725.17,-430.84 2725.17,-430.84 2728.37,-430.84 2731.57,-434.04 2731.57,-437.24 2731.57,-437.24 2731.57,-443.64 2731.57,-443.64 2731.57,-446.84 2728.37,-450.04 2725.17,-450.04"/>
<text text-anchor="middle" x="2661" y="-437.44" font-family="Arial" font-size="10.00" fill="#047857">Node and Connection Types</text>
</g>
<!-- node_types -->
<g id="node44" class="node">
<title>node_types</title>
<path fill="#f5f5f5" stroke="none" d="M2780.88,-350.94C2780.88,-350.94 2541.12,-350.94 2541.12,-350.94 2535.12,-350.94 2529.12,-344.94 2529.12,-338.94 2529.12,-338.94 2529.12,-265.74 2529.12,-265.74 2529.12,-259.74 2535.12,-253.74 2541.12,-253.74 2541.12,-253.74 2780.88,-253.74 2780.88,-253.74 2786.88,-253.74 2792.88,-259.74 2792.88,-265.74 2792.88,-265.74 2792.88,-338.94 2792.88,-338.94 2792.88,-344.94 2786.88,-350.94 2780.88,-350.94"/>
<polygon fill="#0e9f6e" stroke="none" points="2536.32,-329.34 2536.32,-347.34 2614.03,-347.34 2614.03,-329.34 2536.32,-329.34"/>
<polygon fill="none" stroke="#047857" points="2536.32,-329.34 2536.32,-347.34 2614.03,-347.34 2614.03,-329.34 2536.32,-329.34"/>
<text text-anchor="start" x="2546.28" y="-335.34" font-family="Arial" font-size="10.00" fill="white">Main System</text>
<polygon fill="none" stroke="#047857" points="2614.03,-329.34 2614.03,-347.34 2785.68,-347.34 2785.68,-329.34 2614.03,-329.34"/>
<text text-anchor="start" x="2637.06" y="-335.34" font-family="Arial" font-size="10.00" fill="#000000">Overall system (HydroBrain)</text>
<polygon fill="#03a66a" stroke="none" points="2536.32,-311.34 2536.32,-329.34 2614.03,-329.34 2614.03,-311.34 2536.32,-311.34"/>
<polygon fill="none" stroke="#047857" points="2536.32,-311.34 2536.32,-329.34 2614.03,-329.34 2614.03,-311.34 2536.32,-311.34"/>
<text text-anchor="start" x="2550.45" y="-317.34" font-family="Arial" font-size="10.00" fill="white">Subsystem</text>
<polygon fill="none" stroke="#047857" points="2614.03,-311.34 2614.03,-329.34 2785.68,-329.34 2785.68,-311.34 2614.03,-311.34"/>
<text text-anchor="start" x="2629.82" y="-317.34" font-family="Arial" font-size="10.00" fill="#000000">Major system component group</text>
<polygon fill="#f5f5f5" stroke="none" points="2536.32,-293.34 2536.32,-311.34 2614.03,-311.34 2614.03,-293.34 2536.32,-293.34"/>
<polygon fill="none" stroke="#047857" points="2536.32,-293.34 2536.32,-311.34 2614.03,-311.34 2614.03,-293.34 2536.32,-293.34"/>
<text text-anchor="start" x="2549.33" y="-299.34" font-family="Arial" font-size="10.00" fill="#000000">Component</text>
<polygon fill="none" stroke="#047857" points="2614.03,-293.34 2614.03,-311.34 2785.68,-311.34 2785.68,-293.34 2614.03,-293.34"/>
<text text-anchor="start" x="2617.03" y="-299.34" font-family="Arial" font-size="10.00" fill="#000000">Individual hardware/software element</text>
<polygon fill="#ffeb95" stroke="none" points="2536.32,-275.34 2536.32,-293.34 2614.03,-293.34 2614.03,-275.34 2536.32,-275.34"/>
<polygon fill="none" stroke="#047857" points="2536.32,-275.34 2536.32,-293.34 2614.03,-293.34 2614.03,-275.34 2536.32,-275.34"/>
<text text-anchor="start" x="2539.32" y="-281.34" font-family="Arial" font-size="10.00" fill="#000000">Operation Mode</text>
<polygon fill="none" stroke="#047857" points="2614.03,-275.34 2614.03,-293.34 2785.68,-293.34 2785.68,-275.34 2614.03,-275.34"/>
<text text-anchor="start" x="2643.99" y="-281.34" font-family="Arial" font-size="10.00" fill="#000000">Different operation states</text>
<polygon fill="#f0fff4" stroke="none" points="2536.32,-257.34 2536.32,-275.34 2614.03,-275.34 2614.03,-257.34 2536.32,-257.34"/>
<polygon fill="none" stroke="#047857" points="2536.32,-257.34 2536.32,-275.34 2614.03,-275.34 2614.03,-257.34 2536.32,-257.34"/>
<text text-anchor="start" x="2559.34" y="-263.34" font-family="Arial" font-size="10.00" fill="#000000">Cluster</text>
<polygon fill="none" stroke="#047857" points="2614.03,-257.34 2614.03,-275.34 2785.68,-275.34 2785.68,-257.34 2614.03,-257.34"/>
<text text-anchor="start" x="2635.37" y="-263.34" font-family="Arial" font-size="10.00" fill="#000000">Grouping of related elements</text>
</g>
<!-- legend_title&#45;&gt;node_types -->
<!-- connection_types -->
<g id="node45" class="node">
<title>connection_types</title>
<path fill="#f5f5f5" stroke="none" d="M2736.39,-210.74C2736.39,-210.74 2585.61,-210.74 2585.61,-210.74 2579.61,-210.74 2573.61,-204.74 2573.61,-198.74 2573.61,-198.74 2573.61,-179.54 2573.61,-179.54 2573.61,-173.54 2579.61,-167.54 2585.61,-167.54 2585.61,-167.54 2736.39,-167.54 2736.39,-167.54 2742.39,-167.54 2748.39,-173.54 2748.39,-179.54 2748.39,-179.54 2748.39,-198.74 2748.39,-198.74 2748.39,-204.74 2742.39,-210.74 2736.39,-210.74"/>
<polygon fill="none" stroke="#047857" points="2580.81,-189.14 2580.81,-207.14 2607.36,-207.14 2607.36,-189.14 2580.81,-189.14"/>
<text text-anchor="start" x="2589.92" y="-195.14" font-family="Arial" font-size="10.00" fill="#000000">→</text>
<polygon fill="none" stroke="#047857" points="2607.36,-189.14 2607.36,-207.14 2741.19,-207.14 2741.19,-189.14 2607.36,-189.14"/>
<text text-anchor="start" x="2610.36" y="-195.14" font-family="Arial" font-size="10.00" fill="#000000">Direct Connection (solid line)</text>
<polygon fill="none" stroke="#047857" points="2580.81,-171.14 2580.81,-189.14 2607.36,-189.14 2607.36,-171.14 2580.81,-171.14"/>
<text text-anchor="start" x="2583.81" y="-177.14" font-family="Arial" font-size="10.00" fill="#000000">- - →</text>
<polygon fill="none" stroke="#047857" points="2607.36,-171.14 2607.36,-189.14 2741.19,-189.14 2741.19,-171.14 2607.36,-171.14"/>
<text text-anchor="start" x="2616.46" y="-177.14" font-family="Arial" font-size="10.00" fill="#000000">Relationship (dashed line)</text>
</g>
<!-- node_types&#45;&gt;connection_types -->
</g>
</svg>